<?xml version="1.0" encoding="utf-8"?>
<!-- Generator: Adobe Illustrator 21.1.0, SVG Export Plug-In . SVG Version: 6.00 Build 0)  -->
<svg version="1.1" id="Layer_1" xmlns="http://www.w3.org/2000/svg" xmlns:xlink="http://www.w3.org/1999/xlink" x="0px" y="0px"
	 viewBox="0 0 300 300" style="enable-background:new 0 0 300 300;" xml:space="preserve">
<style type="text/css">
	.st0{fill:#69ED85;}
	.st1{fill:#1E1E1E;}
</style>
<path class="st0" d="M256.4,294H45.6C24.3,294,7,276.7,7,255.4V44.6C7,23.3,24.3,6,45.6,6h210.8C277.7,6,295,23.3,295,44.6v210.8
	C295,276.7,277.7,294,256.4,294z"/>
<g>
	<path class="st1" d="M238.1,78.1c-12.8-25-38-37.2-71-34.3c-50.6,4.4-70.4,53.4-71.2,55.4c-2,5.1,0.5,10.9,5.6,12.9
		c5.1,2,10.9-0.5,12.9-5.6c0.6-1.6,16.3-39.7,54.4-42.9c25.1-2.2,42.5,5.7,51.5,23.5c13.8,27.1,5,72.5-19.9,101.2
		c-27.9,32.3-55.1,49.8-74.4,48.2c-10.2-0.8-18.7-7-26.1-19.1c-2.8-4.7-9-6.2-13.7-3.3c-4.7,2.9-6.2,9-3.3,13.7
		c10.7,17.6,24.7,27.2,41.4,28.5c1.4,0.1,2.7,0.2,4.1,0.2c34.1,0,68.9-34.3,87.1-55.3C245.7,166.5,255.6,112.4,238.1,78.1
		L238.1,78.1z M238.1,78.1"/>
	<path class="st1" d="M125.4,162.2l-4.4,1.2l-2,4.1c-7.2,15.6-10.4,36.4,4.6,43.9c1.5,0.8,3.2,1.1,4.8,1.1c3.7,0,7.2-1.9,8.9-5.3
		c2.5-4.9,0.8-10.6-4.1-13.1c-1-1.9,0.2-8.3,2.4-14.3c10.7-3.9,18.1-10.2,21.9-18.8c0.2,0,0.4,0,0.6,0h19.8
		c-5.8,7.6-12.9,15.2-20.7,22.1c-4.1,3.6-4.6,9.9-1,14.1c3.6,4.1,9.9,4.6,14,0.9c25.1-21.8,48.5-55.5,44.7-81.8
		c-1.8-12.1-9.1-21.5-21.1-26.9c-9.8-4.4-19.9-4.8-29-0.8c-19.6,8.3-28.8,32.5-29.8,35.2l-1.6,4.5l2.5,4.1
		c1.5,2.4,6.4,12.7,3.6,19.9C137.8,156.8,133,160.1,125.4,162.2L125.4,162.2z M172.5,107.1c4-1.8,8.2-1.5,13,0.6
		c5.7,2.6,8.8,6.3,9.6,11.7c0.9,5.9-1,13.6-4.9,22c-0.7-0.2-1.5-0.3-2.2-0.3h-28.2c-0.9-5.7-2.8-10.7-4.4-14.2
		C158.4,120.5,164.5,110.4,172.5,107.1L172.5,107.1z M172.5,107.1"/>
</g>
</svg>
