<?xml version="1.0" encoding="utf-8"?>
<!-- Generator: Adobe Illustrator 21.1.0, SVG Export Plug-In . SVG Version: 6.00 Build 0)  -->
<svg version="1.1" id="Layer_1" xmlns="http://www.w3.org/2000/svg" xmlns:xlink="http://www.w3.org/1999/xlink" x="0px" y="0px"
	 viewBox="0 0 300 300" style="enable-background:new 0 0 300 300;" xml:space="preserve">
<style type="text/css">
	.st0{fill:#2B00FF;}
	.st1{fill:#FFFFFF;}
</style>
<path class="st0" d="M251.3,287H50.7C30.4,287,14,270.6,14,250.3V49.7C14,29.4,30.4,13,50.7,13h200.5c20.3,0,36.7,16.4,36.7,36.7
	v200.5C288,270.6,271.6,287,251.3,287z"/>
<g>
	<path class="st1" d="M233.9,81.6c-12.2-23.8-36.1-35.4-67.6-32.6c-48.1,4.2-67,50.8-67.7,52.7c-1.9,4.9,0.5,10.4,5.3,12.3
		c4.8,1.9,10.4-0.5,12.3-5.3c0.6-1.6,15.5-37.7,51.7-40.9c23.8-2.1,40.4,5.4,49,22.3c13.2,25.8,4.7,69-18.9,96.3
		c-26.5,30.7-52.5,47.4-70.8,45.9c-9.7-0.8-17.8-6.7-24.8-18.1c-2.7-4.5-8.5-5.9-13-3.1c-4.5,2.7-5.9,8.6-3.1,13
		c10.2,16.7,23.5,25.9,39.4,27.2c1.3,0.1,2.6,0.2,3.9,0.2c32.4,0,65.6-32.6,82.8-52.6C241.1,165.7,250.5,114.2,233.9,81.6
		L233.9,81.6z M233.9,81.6"/>
	<path class="st1" d="M126.7,161.6l-4.2,1.2l-1.9,3.9c-6.9,14.8-9.9,34.6,4.4,41.7c1.4,0.7,3,1.1,4.5,1.1c3.5,0,6.9-1.8,8.5-5
		c2.4-4.7,0.7-10.1-3.9-12.5c-0.9-1.8,0.2-7.9,2.2-13.6c10.2-3.7,17.2-9.7,20.8-17.9c0.2,0,0.4,0,0.5,0h18.8
		c-5.6,7.2-12.2,14.4-19.7,21c-3.9,3.4-4.4,9.4-0.9,13.4c3.5,3.9,9.4,4.4,13.4,0.9c23.8-20.7,46.2-52.8,42.5-77.8
		c-1.7-11.6-8.7-20.4-20.1-25.6c-9.4-4.2-18.9-4.5-27.6-0.8c-18.6,7.9-27.4,30.9-28.3,33.5l-1.6,4.3l2.4,3.9
		c1.4,2.3,6.1,12.1,3.5,19C138.4,156.5,133.9,159.6,126.7,161.6L126.7,161.6z M171.4,109.2c3.9-1.7,7.8-1.5,12.4,0.6
		c5.5,2.5,8.4,6,9.1,11.1c0.8,5.7-0.9,12.9-4.7,20.9c-0.7-0.2-1.4-0.3-2.1-0.3h-26.8c-0.9-5.4-2.7-10.2-4.2-13.5
		C158,122,163.9,112.3,171.4,109.2L171.4,109.2z M171.4,109.2"/>
</g>
</svg>
